<svg width="308" height="154" viewBox="0 0 308 154" fill="none" xmlns="http://www.w3.org/2000/svg">
<path d="M79.6749 91.565L72.871 98.4462C72.2066 99.1183 71.123 99.1244 70.4509 98.4599L38.4062 66.7759C29.5869 58.0558 14.6244 64.3031 14.6244 76.7055C14.6244 89.1079 29.5869 95.3553 38.4062 86.6352L43.1727 81.9223C43.8448 81.2578 44.9284 81.2639 45.5928 81.936L52.3967 88.8173C53.0612 89.4894 53.0551 90.5729 52.383 91.2374L47.6165 95.9504C30.5237 112.851 1.52475 100.743 1.52475 76.7055C1.52475 52.6683 30.5237 40.5602 47.6165 57.4607L79.6612 89.1448C80.3333 89.8093 80.3394 90.8928 79.6749 91.565Z" fill="white"/>
<path d="M305.967 64.5607L298.783 71.664C298.111 72.3286 297.027 72.3225 296.363 71.6503L289.559 64.7691C288.894 64.097 288.901 63.0134 289.573 62.3488L296.757 55.2455C297.429 54.5811 298.512 54.5872 299.177 55.2593L305.981 62.1405C306.645 62.8127 306.639 63.8961 305.967 64.5607Z" fill="#CCED00"/>
<path d="M305.981 91.8595L299.177 98.7407C298.512 99.4128 297.429 99.4189 296.757 98.7544L264.712 67.0703C255.893 58.3503 240.93 64.5976 240.93 77C240.93 89.4024 255.893 95.6498 264.712 86.9297L269.479 82.2168C270.151 81.5523 271.234 81.5584 271.899 82.2305L278.703 89.1118C279.367 89.7839 279.361 90.8673 278.689 91.5319L273.923 96.2448C256.83 113.145 227.831 101.037 227.831 77C227.831 52.9628 256.83 40.8547 273.923 57.7552L305.967 89.4392C306.639 90.1038 306.645 91.1873 305.981 91.8595Z" fill="white"/>
<path d="M175.378 30.9824H185.377C186.322 30.9824 187.088 31.7486 187.088 32.6937V51.8182C203.11 43.8954 221.88 55.5532 221.88 73.4272V102.058C221.88 103.003 221.114 103.769 220.169 103.769H210.17C209.225 103.769 208.459 103.003 208.459 102.058V73.4272C208.459 67.5258 203.675 62.7416 197.773 62.7416C191.872 62.7416 187.088 67.5257 187.088 73.4272V102.058C187.088 103.003 186.322 103.769 185.377 103.769H175.378C174.433 103.769 173.667 103.003 173.667 102.058V32.6937C173.667 31.7486 174.433 30.9824 175.378 30.9824Z" fill="white"/>
<path d="M101.461 32.6937V102.058C101.461 103.003 100.694 103.769 99.7493 103.769H89.7511C88.8059 103.769 88.0397 103.003 88.0397 102.058V32.6937C88.0397 31.7486 88.8059 30.9824 89.7511 30.9824H99.7493C100.694 30.9824 101.461 31.7486 101.461 32.6937Z" fill="white"/>
<path d="M70.0568 71.3559L63.253 64.4746C62.5885 63.8025 62.5946 62.7189 63.2667 62.0545L70.4509 54.9511C71.123 54.2866 72.2066 54.2927 72.871 54.9648L79.6749 61.8461C80.3394 62.5182 80.3333 63.6017 79.6612 64.2663L72.4771 71.3696C71.8049 72.0341 70.7214 72.028 70.0568 71.3559Z" fill="#CCED00"/>
<path d="M125.012 76.7055V121.306C125.012 122.251 124.246 123.018 123.301 123.018H113.624C112.678 123.018 111.912 122.251 111.912 121.306V76.7055C111.912 52.5945 141.064 40.5197 158.113 57.5687C175.162 74.6179 163.087 103.769 138.976 103.769H132.286C131.341 103.769 130.575 103.003 130.575 102.058V92.3808C130.575 91.4356 131.341 90.6694 132.286 90.6694H138.976C151.416 90.6694 157.647 75.6283 148.85 66.8316C140.053 58.0349 125.012 64.2651 125.012 76.7055Z" fill="white"/>
</svg>
